<?xml version="1.0" encoding="UTF-8"?>
<svg id="Layer_1" data-name="Layer 1" xmlns="http://www.w3.org/2000/svg" viewBox="0 0 1235 650">
  <defs>
    <style>
      .cls-1 {
        fill: #061005;
      }

      .cls-2 {
        fill: #1f8edf;
      }

      .cls-3 {
        fill: #43b43e;
      }

      .cls-4 {
        fill: #fbfcfb;
      }
    </style>
  </defs>
  <rect class="cls-1" width="1235" height="650"/>
  <g>
    <path class="cls-3" d="m0,484.649C0,356.963,0,127.687,0,0c240,0,995,0,1235,0"/>
    <path class="cls-2" d="m1235,161.075v488.925H0"/>
    <path class="cls-3" d="m715.022,232.848l-.05.03.05-.03Z"/>
    <path class="cls-4" d="m593.609,266.852c11.427,11.417,21.829,21.81,32.211,32.183,14.353-7.08,28.079-13.85,41.825-20.631l.151.151c-6.754,13.799-13.489,27.558-20.771,42.437,10.823,10.574,21.927,21.42,33.019,32.257l-.069.139c-15.259-2.367-30.511-4.732-45.961-7.128-6.858,12.739-13.26,25.302-19.137,38.133-.891.064-1.747.823-2.676.133-2.219-14.167-4.437-28.335-6.739-43.035-14.909-2.419-29.678-4.815-45.908-7.447,6.894-3.829,12.717-7.183,18.651-10.328,6.7-3.551,13.515-6.886,20.244-10.386,1.207-.628,2.645-1.455,1.119-3.177"/>
    <path class="cls-4" d="m1057.618,132.646c-1.887-14.076-3.811-28.432-5.681-42.383,10.224,9.792,20.445,19.581,31.136,29.819,13.393-6.591,27.045-13.563,41.626-18.294-6.758,13.174-13.495,26.305-20.498,39.956,10.196,10.835,19.85,22.036,29.909,33.263-3.252-.522-6.505-1.044-9.757-1.566-2.217-.243-2.384-.243-4.439-.521-1.36-.206-2.297-.287-3.681-.514-1.763-.43-1.625-.347-3.16-.77-2.558-.347-3.232-.653-5.881-1.105-2.236-.543-1.616-.393-2.857-.676-4.219-.784-8.438-1.568-13.44-2.498-7.144,13.194-14.313,26.436-21.483,39.679-.227-.418-.56-.535-1-.354-2.052-14.647-4.104-29.295-6.189-44.179-15.314-2.837-30.244-5.603-45.983-8.519"/>
    <path class="cls-4" d="m126.867,453.684c11.249,9.501,19.696,20.966,30.322,31.059,13.619-5.438,26.087-13.626,40.246-17.848.413.337.826.674,1.239,1.012-5.6,12.994-13.962,24.562-19.936,37.615,9.638,11.783,19.997,22.448,30.071,34.065-11.35-1.997-22.701-3.993-34.051-5.99-.73-.646-1.493-1.053-2.408-.324-2.296-.465-4.542-1.421-7.617-.768-6.902,12.361-12.573,25.731-21.645,37.901-1.427-9.656-2.854-19.313-4.281-28.969.824-.972.399-1.768-.353-2.519-.523-3.741-1.045-7.483-1.67-11.954-11.708-2.102-23.506-4.221-35.303-6.339-.865-.72-1.784-1.055-2.845-.408-1.828-.373-3.656-.747-5.484-1.12-.176-.587-.352-1.174-.528-1.761,4.065-1.948,6.504-3.483,11.804-6.549l.404-.037s.097-.41.097-.41c8.922-4.06,17.845-8.12,27.412-12.474"/>
  </g>
</svg>